<?xml version="1.0" encoding="UTF-8"?>
<svg id="Layer_2" data-name="Layer 2" xmlns="http://www.w3.org/2000/svg" xmlns:xlink="http://www.w3.org/1999/xlink" viewBox="0 0 334 173">
  <defs>
    <style>
      .cls-1 {
        letter-spacing: .15em;
      }

      .cls-2 {
        font-family: JosefinSansRoman-Medium, 'Josefin Sans';
        font-size: 8.7px;
        font-variation-settings: 'wght' 500;
        font-weight: 500;
      }

      .cls-2, .cls-3 {
        fill: #f1f0f1;
      }

      .cls-4 {
        fill: url(#New_Gradient_Swatch_2);
      }

      .cls-4, .cls-5, .cls-3 {
        stroke-width: 0px;
      }

      .cls-5 {
        fill: #fff;
      }

      .cls-6 {
        letter-spacing: .17em;
      }
    </style>
    <linearGradient id="New_Gradient_Swatch_2" data-name="New Gradient Swatch 2" x1="292.05" y1="211.55" x2="41.95" y2="-38.55" gradientUnits="userSpaceOnUse">
      <stop offset="0" stop-color="#a4235c"/>
      <stop offset="1" stop-color="#cd442a"/>
    </linearGradient>
  </defs>
  <g id="SLIDE_3" data-name="SLIDE 3">
    <rect class="cls-4" width="334" height="173" rx="5.8" ry="5.8"/>
    <g>
      <path class="cls-3" d="M166,38.94l-1.34,1.79c-1.49,1.99-1.26,4.77.53,6.5l10.95,10.53c1.27,1.22,3.42-.18,2.58-1.68-2.42-4.33-5.06-9.81-7.43-16.42-.78-2.17-3.88-2.6-5.28-.72Z"/>
      <path class="cls-3" d="M194.55,87.79c-2.76,6.99-8.13,11.21-8.13,11.21h12.55c2.09,0,3.15-2.39,1.86-4.03-1.9-2.41-3.05-4.91-3.75-7.06-.39-1.2-2.06-1.29-2.53-.12Z"/>
      <path class="cls-3" d="M154.92,57.66l-22.31,41.34h5.77c3.54,0,6.78-1.86,8.38-4.82l8.56-15.85s12.2,9.13,15.29,16.52c1.02,2.44,3.25,4.15,5.89,4.15h9.61c3.97-15.19-31.18-41.34-31.18-41.34Z"/>
      <path class="cls-5" d="M155.31,78.33s13.06,9.77,15.58,17.29c.68,2.04,2.63,3.38,4.78,3.38h10.43c3.97-15.19-30.79-20.67-30.79-20.67Z"/>
    </g>
    <g>
      <path class="cls-3" d="M142.51,108.31h0v19.74c0,1.03-.83,1.86-1.86,1.86h0l-.04-4.52s-.06-.06-.09-.02c-.75,1.49-1.8,2.71-3.18,3.64-1.43.97-3.13,1.46-5.12,1.46-1.57,0-3.04-.3-4.42-.89-1.38-.59-2.59-1.41-3.63-2.46-1.04-1.05-1.86-2.26-2.45-3.63-.59-1.37-.89-2.84-.89-4.43s.3-3.04.89-4.42c.59-1.37,1.4-2.58,2.44-3.62,1.04-1.04,2.24-1.85,3.61-2.44,1.37-.59,2.83-.89,4.38-.89,2.02,0,3.74.49,5.18,1.46,1.44.97,2.56,2.25,3.35,3.83l-.03-2.83c0-1.02.82-1.86,1.84-1.86ZM132.21,128.64c1.76,0,3.25-.43,4.49-1.29,1.24-.86,2.19-2.01,2.84-3.46.66-1.45.98-3.04.98-4.78s-.33-3.4-.99-4.85c-.66-1.45-1.62-2.6-2.86-3.45-1.25-.85-2.73-1.27-4.46-1.27s-3.33.43-4.77,1.29c-1.44.86-2.58,2.01-3.43,3.47-.85,1.45-1.27,3.06-1.27,4.82s.44,3.4,1.32,4.84c.88,1.44,2.03,2.58,3.47,3.42s3,1.26,4.7,1.26Z"/>
      <path class="cls-3" d="M152.48,130.34c-1.21-.01-2.39-.23-3.55-.64-1.16-.41-2.17-.97-3.02-1.67-.86-.71-1.44-1.49-1.76-2.35h0c.83-.36,1.81-.16,2.42.5.21.23.46.45.74.66.74.55,1.59.98,2.54,1.29.95.31,1.86.46,2.72.46,1.05,0,2.03-.18,2.94-.54.89-.35,1.62-.85,2.19-1.5.54-.61.85-1.37.88-2.18.03-.98-.27-1.75-.89-2.31-.6-.53-1.36-.96-2.28-1.3-.92-.33-1.88-.65-2.87-.95-1.61-.48-3-.95-4.16-1.43-1.16-.48-2.05-1.07-2.67-1.79-.62-.72-.93-1.68-.93-2.89s.37-2.34,1.1-3.25c.73-.91,1.7-1.62,2.88-2.13,1.19-.5,2.46-.76,3.81-.76,1.79,0,3.4.39,4.85,1.18,1.45.79,2.45,1.81,3.01,3.08l-.04.02c-.77.45-1.73.26-2.34-.39-.18-.19-.38-.37-.6-.54-.66-.5-1.42-.9-2.27-1.18s-1.7-.42-2.55-.42c-1.07,0-2.06.17-2.98.52-.92.35-1.67.85-2.24,1.5-.57.66-.85,1.44-.85,2.34s.25,1.65.76,2.13c.5.48,1.21.88,2.13,1.19.91.31,2,.67,3.25,1.07,1.34.42,2.59.87,3.76,1.37s2.11,1.12,2.83,1.87c.72.75,1.08,1.72,1.08,2.92s-.37,2.34-1.11,3.26c-.74.92-1.71,1.63-2.92,2.13-1.2.5-2.49.74-3.86.72Z"/>
      <path class="cls-3" d="M170.39,130.34c-1.21-.01-2.39-.23-3.55-.64-1.16-.41-2.17-.97-3.02-1.67-.86-.71-1.44-1.49-1.76-2.35h0c.83-.36,1.81-.16,2.42.5.21.23.46.45.74.66.74.55,1.59.98,2.54,1.29.95.31,1.86.46,2.72.46,1.05,0,2.03-.18,2.94-.54.89-.35,1.62-.85,2.19-1.5.54-.61.85-1.37.88-2.18.03-.98-.27-1.75-.89-2.31-.6-.53-1.36-.96-2.28-1.3-.92-.33-1.88-.65-2.87-.95-1.61-.48-3-.95-4.16-1.43-1.16-.48-2.05-1.07-2.67-1.79-.62-.72-.93-1.68-.93-2.89s.37-2.34,1.1-3.25c.73-.91,1.7-1.62,2.88-2.13,1.19-.5,2.46-.76,3.81-.76,1.79,0,3.4.39,4.85,1.18,1.45.79,2.45,1.81,3.01,3.08l-.04.02c-.77.45-1.73.26-2.34-.39-.18-.19-.38-.37-.6-.54-.66-.5-1.42-.9-2.27-1.18s-1.7-.42-2.55-.42c-1.07,0-2.06.17-2.98.52-.92.35-1.67.85-2.24,1.5-.57.66-.85,1.44-.85,2.34s.25,1.65.76,2.13c.5.48,1.21.88,2.13,1.19.91.31,2,.67,3.25,1.07,1.34.42,2.59.87,3.76,1.37s2.11,1.12,2.83,1.87c.72.75,1.08,1.72,1.08,2.92s-.37,2.34-1.11,3.26c-.74.92-1.71,1.63-2.92,2.13-1.2.5-2.49.74-3.86.72Z"/>
      <path class="cls-3" d="M179.96,108.31h0c1.03,0,1.86.83,1.86,1.86v19.74h0c-1.03,0-1.86-.83-1.86-1.86v-19.74Z"/>
      <path class="cls-3" d="M191.79,130.34c-1.21-.01-2.39-.23-3.55-.64-1.16-.41-2.17-.97-3.02-1.67-.86-.71-1.44-1.49-1.76-2.35h0c.83-.36,1.81-.16,2.42.5.21.23.46.45.74.66.74.55,1.59.98,2.54,1.29.95.31,1.86.46,2.72.46,1.05,0,2.03-.18,2.94-.54.89-.35,1.62-.85,2.19-1.5.54-.61.85-1.37.88-2.18.03-.98-.27-1.75-.89-2.31-.6-.53-1.36-.96-2.28-1.3-.92-.33-1.88-.65-2.87-.95-1.61-.48-3-.95-4.16-1.43-1.16-.48-2.05-1.07-2.67-1.79-.62-.72-.93-1.68-.93-2.89s.37-2.34,1.1-3.25c.73-.91,1.7-1.62,2.88-2.13,1.19-.5,2.46-.76,3.81-.76,1.79,0,3.4.39,4.85,1.18,1.45.79,2.45,1.81,3.01,3.08l-.04.02c-.77.45-1.73.26-2.34-.39-.18-.19-.38-.37-.6-.54-.66-.5-1.42-.9-2.27-1.18s-1.7-.42-2.55-.42c-1.07,0-2.06.17-2.98.52-.92.35-1.67.85-2.24,1.5-.57.66-.85,1.44-.85,2.34s.25,1.65.76,2.13c.5.48,1.21.88,2.13,1.19.91.31,2,.67,3.25,1.07,1.34.42,2.59.87,3.76,1.37s2.11,1.12,2.83,1.87c.72.75,1.08,1.72,1.08,2.92s-.37,2.34-1.11,3.26c-.74.92-1.71,1.63-2.92,2.13-1.2.5-2.49.74-3.86.72Z"/>
      <path class="cls-3" d="M213.15,110.17h-5.66l-.04,19.74h0c-1.03,0-1.86-.83-1.85-1.86l.04-17.88h-2.42c-1.03,0-1.86-.83-1.86-1.86h0s4.28,0,4.28,0l-.04-6.78h0c1.03,0,1.86.83,1.87,1.86l.03,4.92h3.8c1.03,0,1.86.83,1.86,1.86h0Z"/>
    </g>
    <text class="cls-2" transform="translate(134.51 142.38)"><tspan class="cls-6" x="0" y="0">CONCIE</tspan><tspan class="cls-1" x="44.13" y="0">R</tspan><tspan class="cls-6" x="51.23" y="0">GE</tspan></text>
  </g>
</svg>