<?xml version="1.0" encoding="UTF-8"?>
<svg id="Layer_2" data-name="Layer 2" xmlns="http://www.w3.org/2000/svg" xmlns:xlink="http://www.w3.org/1999/xlink" viewBox="0 0 243.59 143.64">
  <defs>
    <style>
      .cls-1 {
        font-family: RalewayRoman-Light, Raleway;
        font-size: 24.63px;
        font-variation-settings: 'wght' 300;
        font-weight: 300;
      }

      .cls-1, .cls-2 {
        fill: #f3f4f5;
      }

      .cls-3 {
        letter-spacing: -.08em;
      }

      .cls-2, .cls-4, .cls-5, .cls-6, .cls-7 {
        stroke-width: 0px;
      }

      .cls-4 {
        fill: #cf442a;
      }

      .cls-8 {
        letter-spacing: -.06em;
      }

      .cls-5 {
        fill: #fff;
      }

      .cls-6 {
        fill: url(#New_Gradient_Swatch_1);
      }

      .cls-7 {
        fill: #f1f0f1;
      }

      .cls-9 {
        letter-spacing: -.17em;
      }

      .cls-10 {
        letter-spacing: -.05em;
      }
    </style>
    <linearGradient id="New_Gradient_Swatch_1" data-name="New Gradient Swatch 1" x1="216.89" y1="166.91" x2="16.47" y2="-33.5" gradientUnits="userSpaceOnUse">
      <stop offset="0" stop-color="#a6235c"/>
      <stop offset="1" stop-color="#cf442a"/>
    </linearGradient>
  </defs>
  <g id="SLIDE_3" data-name="SLIDE 3">
    <rect class="cls-6" width="243.59" height="143.64"/>
    <g>
      <g>
        <path class="cls-7" d="M119.42,29.67l-1.03,1.37c-1.16,1.55-.98,3.65.43,5.01l8.38,8.06c.98.94,2.62-.14,1.98-1.29-1.85-3.32-3.88-7.53-5.7-12.6-.6-1.67-2.98-1.99-4.05-.55Z"/>
        <path class="cls-7" d="M142.44,62.81c-.94,7.91-7.35,12.95-7.35,12.95h14.23c-6.88-5.18-6.88-12.95-6.88-12.95Z"/>
        <path class="cls-7" d="M110.92,44.03l-17.12,31.72h4.42c2.72,0,5.2-1.43,6.43-3.69l6.57-12.17s13.48,10.08,12.18,15.86h11.44c3.05-11.65-23.92-31.72-23.92-31.72Z"/>
        <path class="cls-5" d="M111.22,59.89s13.48,10.08,12.18,15.86h11.44c3.05-11.65-23.62-15.86-23.62-15.86Z"/>
      </g>
      <g>
        <g>
          <path class="cls-2" d="M58.72,101.64c-.16-.19-.4-.39-.74-.61-.34-.22-.73-.42-1.17-.6-.44-.18-.93-.34-1.46-.47-.53-.13-1.07-.19-1.62-.19-1.21,0-2.11.22-2.7.67-.59.45-.88,1.07-.88,1.86,0,.59.16,1.05.49,1.4.33.35.84.63,1.52.84.68.22,1.53.44,2.53.69,1.26.29,4.87,2.02,5.37,2.69s.74,1.57.74,2.69c0,.91-.18,1.71-.53,2.38-.36.67-.84,1.22-1.47,1.64-.62.42-1.34.74-2.16.94-.81.21-1.69.31-2.63.31s-1.83-.1-2.74-.3-1.78-.49-2.6-.86h-.02c-1.31-.6-1.84-2.18-1.15-3.44l.23-.42c.21.23.53.47.96.74.43.27.93.52,1.49.77.56.24,1.18.45,1.85.61.67.16,1.35.25,2.04.25,1.16,0,2.05-.2,2.66-.61.62-.4.92-.99.92-1.77,0-.6-.2-1.09-.61-1.46-.41-.37-.99-.69-1.74-.94-.75-.26-1.66-.52-2.72-.78-1.21-.31-2.23-.66-3.04-1.06-.81-.4-1.42-.9-1.82-1.5-.4-.6-.6-1.39-.6-2.36,0-1.21.29-2.23.87-3.07.58-.84,1.38-1.47,2.4-1.89,1.02-.42,2.16-.63,3.41-.63.83,0,1.62.09,2.38.27.75.18,1.46.43,2.11.74h0c1,.48,1.39,1.69.86,2.66l-.43.79Z"/>
          <path class="cls-2" d="M74.18,101.64c-.16-.19-.4-.39-.74-.61-.34-.22-.73-.42-1.17-.6-.44-.18-.93-.34-1.46-.47-.53-.13-1.07-.19-1.62-.19-1.21,0-2.11.22-2.7.67-.59.45-.88,1.07-.88,1.86,0,.59.16,1.05.49,1.4.33.35.84.63,1.52.84.68.22,1.53.44,2.53.69,1.26.29,2.35.65,3.26,1.06.91.41,1.61.96,2.11,1.63s.74,1.57.74,2.69c0,.91-.18,1.71-.53,2.38-.36.67-.84,1.22-1.47,1.64-.62.42-1.34.74-2.16.94-.81.21-1.69.31-2.63.31s-1.83-.1-2.74-.3-1.78-.49-2.6-.86h0c-1.32-.6-1.85-2.19-1.16-3.46l.22-.4c.21.23.53.47.96.74.43.27.93.52,1.49.77.56.24,1.18.45,1.85.61.67.16,1.35.25,2.04.25,1.16,0,2.05-.2,2.66-.61.62-.4.92-.99.92-1.77,0-.6-.2-1.09-.61-1.46-.41-.37-.99-.69-1.74-.94-.75-.26-1.66-.52-2.72-.78-1.21-.31-2.23-.66-3.04-1.06-.81-.4-1.42-.9-1.82-1.5-.4-.6-.6-1.39-.6-2.36,0-1.21.29-2.23.87-3.07.58-.84,1.38-1.47,2.4-1.89,1.02-.42,2.16-.63,3.41-.63.83,0,1.62.09,2.38.27.75.18,1.46.43,2.11.74h0c1,.48,1.39,1.69.86,2.66l-.43.79Z"/>
          <path class="cls-2" d="M79.25,115.76v-15.95c0-1.38,1.12-2.51,2.51-2.51h.43v15.97c0,1.37-1.11,2.49-2.49,2.49h-.45Z"/>
          <path class="cls-2" d="M96.17,101.64c-.16-.19-.4-.39-.74-.61-.34-.22-.73-.42-1.17-.6-.44-.18-.93-.34-1.46-.47-.53-.13-1.07-.19-1.62-.19-1.21,0-2.11.22-2.7.67-.59.45-.88,1.07-.88,1.86,0,.59.16,1.05.49,1.4.33.35.84.63,1.52.84.68.22,1.53.44,2.53.69,1.26.29,2.35.65,3.26,1.06.91.41,1.61.96,2.11,1.63s.74,1.57.74,2.69c0,.91-.18,1.71-.53,2.38-.36.67-.84,1.22-1.47,1.64-.62.42-1.34.74-2.16.94-.81.21-1.69.31-2.63.31s-1.83-.1-2.74-.3-1.78-.49-2.6-.86h-.02c-1.31-.6-1.84-2.18-1.15-3.44l.22-.41s.01,0,.02,0c.21.22.53.47.95.73.43.27.93.52,1.49.77.56.24,1.18.45,1.85.61.67.16,1.35.25,2.04.25,1.16,0,2.05-.2,2.66-.61.62-.4.92-.99.92-1.77,0-.6-.2-1.09-.61-1.46-.41-.37-.99-.69-1.74-.94-.75-.26-1.66-.52-2.72-.78-1.21-.31-2.23-.66-3.04-1.06-.81-.4-1.42-.9-1.82-1.5-.4-.6-.6-1.39-.6-2.36,0-1.21.29-2.23.87-3.07.58-.84,1.38-1.47,2.4-1.89,1.02-.42,2.16-.63,3.41-.63.83,0,1.62.09,2.38.27.75.18,1.46.43,2.11.74h0c1,.48,1.39,1.69.86,2.66l-.43.79Z"/>
          <path class="cls-2" d="M111.16,99.87h-3.83v15.48c0,.22-.18.4-.4.4h0c-1.4,0-2.53-1.13-2.53-2.53v-13.35h-6.16c0-1.42,1.15-2.57,2.57-2.57h8.74s3.65,0,3.65,0c.15,0,.27.12.27.27h0c0,1.27-1.03,2.3-2.3,2.3Z"/>
        </g>
        <text class="cls-1" transform="translate(113.35 115.26)"><tspan class="cls-8" x="0" y="0">C</tspan><tspan class="cls-10" x="15.49" y="0">ONSU</tspan><tspan class="cls-9" x="81.29" y="0">L</tspan><tspan class="cls-3" x="91.46" y="0">T</tspan></text>
        <g>
          <path class="cls-7" d="M36.68,97.84l-.35.52c-.4.59-.33,1.39.15,1.9l2.85,3.06c.33.36.89-.05.67-.49-.63-1.26-1.32-2.86-1.94-4.78-.2-.63-1.01-.76-1.38-.21Z"/>
          <path class="cls-7" d="M44.52,110.42c-.32,3-2.5,4.91-2.5,4.91h4.84c-2.34-1.96-2.34-4.91-2.34-4.91Z"/>
          <path class="cls-7" d="M33.79,103.29l-5.83,12.03h1.51c.93,0,1.77-.54,2.19-1.4l2.24-4.62s4.59,3.83,4.15,6.02h3.9c1.04-4.42-8.14-12.03-8.14-12.03Z"/>
          <path class="cls-4" d="M33.89,109.31s4.59,3.83,4.15,6.02h3.9c1.04-4.42-8.04-6.02-8.04-6.02Z"/>
        </g>
      </g>
    </g>
  </g>
</svg>