<?xml version="1.0" encoding="UTF-8"?>
<svg id="Layer_2" data-name="Layer 2" xmlns="http://www.w3.org/2000/svg" viewBox="0 0 487.59 378.78">
  <defs>
    <style>
      .cls-1 {
        letter-spacing: .75em;
      }

      .cls-2 {
        fill: #f24453;
      }

      .cls-2, .cls-3 {
        stroke-width: 0px;
      }

      .cls-3 {
        fill: #383b42;
      }

      .cls-4 {
        fill: #111725;
        font-family: Outfit-SemiBold, Outfit;
        font-size: 34.05px;
        font-variation-settings: 'wght' 600;
        font-weight: 600;
      }

      .cls-5 {
        letter-spacing: .66em;
      }

      .cls-6 {
        letter-spacing: .72em;
      }

      .cls-7 {
        letter-spacing: .75em;
      }

      .cls-8 {
        letter-spacing: .74em;
      }
    </style>
  </defs>
  <g id="Layer_1-2" data-name="Layer 1">
    <text class="cls-4" transform="translate(0 370.14)"><tspan class="cls-1" x="0" y="0">INN</tspan><tspan class="cls-6" x="135.64" y="0">O</tspan><tspan class="cls-5" x="187.33" y="0">V</tspan><tspan class="cls-7" x="233.73" y="0">ATIO</tspan><tspan class="cls-8" x="418.41" y="0">N</tspan><tspan class="cls-1" x="468.22" y="0">S</tspan></text>
    <g>
      <path class="cls-2" d="M4.51,317.82v-99.55h10.71v99.55H4.51ZM11.17,317.82v-9.84h29.23c7.81,0,14.71-1.71,20.69-5.14,5.98-3.42,10.64-8.15,13.96-14.18,3.33-6.03,4.99-12.95,4.99-20.76s-1.69-14.59-5.06-20.62c-3.38-6.03-8.06-10.73-14.04-14.11-5.98-3.38-12.83-5.06-20.55-5.06H11.46v-9.84h29.23c7.24,0,13.91,1.23,20.04,3.69,6.12,2.46,11.48,5.93,16.06,10.42,4.58,4.49,8.13,9.74,10.64,15.77,2.51,6.03,3.76,12.66,3.76,19.9s-1.25,13.6-3.76,19.68c-2.51,6.08-6.03,11.36-10.56,15.84-4.54,4.49-9.86,7.98-15.99,10.49-6.13,2.51-12.76,3.76-19.9,3.76H11.17Z"/>
      <path class="cls-2" d="M112.6,273.18l-5.87-7.57,18.74.04c6.56,0,11.6-1.66,15.12-4.99,3.52-3.33,5.28-7.74,5.28-13.24s-1.74-9.81-5.21-13.24c-3.47-3.42-8.49-5.14-15.05-5.14-9.61-.06-19.22-.13-28.84-.19-.03-3.07-.07-6.14-.1-9.21h28.94c6.46,0,12.01,1.18,16.64,3.55,4.63,2.37,8.18,5.62,10.64,9.77,2.46,4.15,3.69,8.88,3.69,14.18,0,5.6-1.23,10.44-3.69,14.54-2.46,4.1-6.01,7.31-10.64,9.62-4.63,2.32-10.18,3.47-16.64,3.47l-13.02-1.59ZM149.93,319.19l-37.33-46.01,10.42-3.33,40.66,49.34h-13.75Z"/>
      <path class="cls-2" d="M183.53,229.77v-9.69h57.74l-9.69,9.69h-48.04ZM184.25,273.32v-9.41h47.74v9.41h-47.74ZM183.53,319.63v-9.69l48.12-.02,10.49,9.71h-58.6Z"/>
      <path class="cls-2" d="M251.26,229.78c3.23-3.23,6.46-6.46,9.69-9.69h71.19c-3.23,3.23-6.46,6.46-9.69,9.69h-71.19ZM286.43,319.64v-96.8h10.71v96.8h-10.71Z"/>
      <path class="cls-3" d="M348.37,229.78v-9.69h57.74c-3.23,3.23-6.46,6.46-9.69,9.69h-48.04ZM348.37,273.33v-9.41h71.73s0,9.4,0,9.4h-71.73ZM348.37,319.64v-9.69l47.74-.02,10.87,9.71h-58.6Z"/>
      <path class="cls-3" d="M458.48,310.08l-44.28-42.39,42.44-38.04c6.87-6.16,15.77-9.56,24.99-9.56h0l-56.72,50.5v-6.08l58.17,55.13h-.8c-8.87,0-17.39-3.42-23.8-9.55Z"/>
    </g>
    <g>
      <circle class="cls-2" cx="198.39" cy="49.64" r="13.74"/>
      <path class="cls-2" d="M159.94.05c31.35,0,48.65,0,79.99,0,13.46-.19,37.02,6.14,50.64,25.9,11.06,14.54,17.55,43.01,6.61,66.55-10.39,21.81-25.59,33.21-48.51,37.27-4,.59-11.41,1.61-20.72-.46-32.18-7.67-42.86-29.59-42.37-56.84h27.88c.01,1.17.63,13.2,4.91,19.34,5.01,7.18,13.14,9.37,15.67,10.04,9.84,2.64,20.96.32,29.08-6.43,11.25-9.35,11.67-22.98,11.8-27.23.61-19.97-14.09-33.32-18.95-36-3.17-1.75-5.74-2.51-6.32-2.68-2.87-.83-5.16-1.01-7.71-1.21-1.9-.15-4.27-.24-7.02-.12-21.75-.02-29.47-.05-51.22-.07-7.92-9.36-15.84-18.72-23.77-28.07Z"/>
      <g>
        <path class="cls-2" d="M242.77,181.78c6.72,0,12.17-4.15,12.17-9.27h-24.33c0,5.12,5.45,9.27,12.17,9.27Z"/>
        <path class="cls-2" d="M263.62,139.88h-41.7c-3.63,0-6.57,2.24-6.57,5s2.94,5,6.57,5h41.7c3.62,0,6.57-2.24,6.57-5s-2.94-5-6.57-5Z"/>
        <path class="cls-2" d="M263.62,156.01h-41.7c-3.63,0-6.57,2.24-6.57,5s2.94,5,6.57,5h41.7c3.62,0,6.57-2.24,6.57-5s-2.94-5-6.57-5Z"/>
      </g>
      <line class="cls-2" x1="302.46" y1="30.95" x2="316.66" y2="15.15"/>
      <circle class="cls-3" cx="322.36" cy="8.84" r="8.84"/>
      <line class="cls-2" x1="306.91" y1="70.43" x2="326.37" y2="78.97"/>
      <circle class="cls-2" cx="334.15" cy="82.41" r="8.84"/>
      <line class="cls-2" x1="181.67" y1="88.71" x2="163.17" y2="99.16"/>
      <circle class="cls-3" cx="155.75" cy="103.32" r="8.84"/>
    </g>
  </g>
</svg>