<?xml version="1.0" encoding="UTF-8"?>
<svg id="Layer_2" data-name="Layer 2" xmlns="http://www.w3.org/2000/svg" viewBox="0 0 1079.01 251.74">
  <defs>
    <style>
      .cls-1 {
        letter-spacing: .74em;
      }

      .cls-2 {
        letter-spacing: .66em;
      }

      .cls-3 {
        fill: #f24453;
      }

      .cls-3, .cls-4, .cls-5 {
        stroke-width: 0px;
      }

      .cls-4 {
        fill: #f25170;
      }

      .cls-5, .cls-6 {
        fill: #383b42;
      }

      .cls-7 {
        fill: none;
        stroke: #f24453;
        stroke-miterlimit: 10;
        stroke-width: 3px;
      }

      .cls-8 {
        letter-spacing: .75em;
      }

      .cls-9 {
        letter-spacing: .72em;
      }

      .cls-6 {
        font-family: Outfit-SemiBold, Outfit;
        font-size: 53.33px;
        font-variation-settings: 'wght' 600;
        font-weight: 600;
      }

      .cls-10 {
        letter-spacing: .75em;
      }
    </style>
  </defs>
  <g id="Layer_1-2" data-name="Layer 1">
    <g>
      <text class="cls-6" transform="translate(315.34 238.2)"><tspan class="cls-8" x="0" y="0">INN</tspan><tspan class="cls-9" x="212.45" y="0">O</tspan><tspan class="cls-2" x="293.39" y="0">V</tspan><tspan class="cls-10" x="366.08" y="0">ATIO</tspan><tspan class="cls-1" x="655.31" y="0">N</tspan><tspan class="cls-8" x="733.33" y="0">S</tspan></text>
      <g>
        <path class="cls-3" d="M322.41,156.26V.34h16.77v155.92h-16.77ZM332.84,156.26v-15.41h45.78c12.24,0,23.04-2.68,32.41-8.05,9.37-5.36,16.66-12.77,21.87-22.21,5.21-9.44,7.82-20.28,7.82-32.52s-2.65-22.85-7.93-32.29c-5.29-9.44-12.62-16.81-21.98-22.1-9.37-5.29-20.1-7.93-32.18-7.93h-45.33V.34h45.78c11.33,0,21.79,1.93,31.39,5.78,9.59,3.85,17.98,9.29,25.16,16.32,7.17,7.03,12.73,15.26,16.66,24.7,3.93,9.44,5.89,19.83,5.89,31.16s-1.96,21.3-5.89,30.82c-3.93,9.52-9.44,17.79-16.54,24.82-7.1,7.03-15.45,12.5-25.04,16.43-9.6,3.93-19.98,5.89-31.16,5.89h-46.69Z"/>
        <path class="cls-3" d="M491.7,86.34l-9.19-11.85,29.36.07c10.27,0,18.17-2.61,23.68-7.82,5.51-5.21,8.27-12.12,8.27-20.74s-2.72-15.37-8.16-20.74c-5.44-5.36-13.3-8.05-23.57-8.05-15.05-.1-30.11-.2-45.16-.3-.05-4.81-.11-9.62-.16-14.43h45.33c10.12,0,18.81,1.85,26.06,5.55,7.25,3.7,12.8,8.8,16.66,15.3,3.85,6.5,5.78,13.9,5.78,22.21,0,8.76-1.93,16.36-5.78,22.78-3.85,6.42-9.41,11.44-16.66,15.07-7.25,3.63-15.94,5.44-26.06,5.44l-20.4-2.49ZM550.17,158.41l-58.47-72.07,16.32-5.21,63.68,77.28h-21.53Z"/>
        <path class="cls-3" d="M602.79,18.35V3.17h90.43c-5.06,5.06-10.12,10.12-15.18,15.18h-75.24ZM603.92,86.57v-14.73h74.78v14.73h-74.78ZM602.79,159.09v-15.18l75.36-.02,16.42,15.21h-91.79Z"/>
        <path class="cls-3" d="M708.88,18.37c5.06-5.06,10.12-10.12,15.18-15.18h111.5c-5.06,5.06-10.12,10.12-15.18,15.18h-111.5ZM763.95,159.1V7.49h16.77v151.62h-16.77Z"/>
        <path class="cls-5" d="M860.97,18.37V3.18h90.43c-5.06,5.06-10.12,10.12-15.18,15.18h-75.24ZM860.97,86.58v-14.73h112.34s0,14.72,0,14.72h-112.34ZM860.97,159.1v-15.18l74.76-.03,17.02,15.21h-91.79Z"/>
        <path class="cls-5" d="M1033.42,144.14l-69.36-66.4,66.47-59.59c10.76-9.64,24.7-14.98,39.14-14.98h0l-88.84,79.09v-9.52l91.11,86.35h-1.25c-13.89,0-27.24-5.36-37.27-14.96Z"/>
      </g>
      <g>
        <circle class="cls-4" cx="67.29" cy="64.88" r="17.95"/>
        <path class="cls-3" d="M17.03.07c40.97,0,63.59,0,104.56,0,17.59-.25,48.38,8.03,66.19,33.85,14.45,19,22.94,56.21,8.64,86.98-13.58,28.5-33.44,43.41-63.4,48.71-5.23.77-14.91,2.1-27.08-.6-42.07-10.02-56.02-38.68-55.38-74.29h36.44c.02,1.52.82,17.25,6.41,25.27,6.55,9.39,17.17,12.24,20.48,13.13,12.87,3.45,27.39.42,38-8.41,14.7-12.23,15.25-30.04,15.42-35.59.8-26.1-18.41-43.55-24.77-47.05-4.15-2.28-7.51-3.28-8.26-3.5-3.75-1.09-6.75-1.32-10.08-1.58-2.48-.19-5.59-.31-9.18-.15-28.43-.03-38.52-.06-66.95-.09C37.73,24.53,27.38,12.3,17.03.07Z"/>
        <g>
          <path class="cls-3" d="M125.28,237.6c8.78,0,15.9-5.42,15.9-12.11h-31.81c0,6.69,7.12,12.11,15.9,12.11Z"/>
          <path class="cls-3" d="M152.54,182.82h-54.51c-4.74,0-8.58,2.92-8.58,6.53s3.84,6.54,8.58,6.54h54.51c4.74,0,8.58-2.92,8.58-6.54s-3.85-6.53-8.58-6.53Z"/>
          <path class="cls-3" d="M152.54,203.91h-54.51c-4.74,0-8.58,2.92-8.58,6.54s3.84,6.53,8.58,6.53h54.51c4.74,0,8.58-2.92,8.58-6.53s-3.85-6.54-8.58-6.54Z"/>
        </g>
        <line class="cls-7" x1="203.3" y1="40.46" x2="221.86" y2="19.8"/>
        <circle class="cls-5" cx="229.31" cy="11.55" r="11.55"/>
        <line class="cls-7" x1="209.12" y1="92.05" x2="234.55" y2="103.22"/>
        <circle class="cls-4" cx="244.72" cy="107.71" r="11.55"/>
        <line class="cls-7" x1="45.43" y1="115.95" x2="21.24" y2="129.6"/>
        <circle class="cls-5" cx="11.55" cy="135.05" r="11.55"/>
      </g>
    </g>
  </g>
</svg>