<?xml version="1.0" encoding="UTF-8"?>
<svg id="Layer_2" data-name="Layer 2" xmlns="http://www.w3.org/2000/svg" viewBox="0 0 1035.42 241.57">
  <defs>
    <style>
      .cls-1, .cls-2 {
        stroke-width: 0px;
      }

      .cls-1, .cls-3 {
        fill: #eaecf1;
      }

      .cls-2 {
        fill: #111725;
      }

      .cls-4 {
        letter-spacing: .75em;
      }

      .cls-3 {
        font-family: Outfit-SemiBold, Outfit;
        font-size: 51.17px;
        font-variation-settings: 'wght' 600;
        font-weight: 600;
      }

      .cls-5 {
        letter-spacing: .74em;
      }

      .cls-6 {
        letter-spacing: .72em;
      }

      .cls-7 {
        letter-spacing: .75em;
      }

      .cls-8 {
        letter-spacing: .66em;
      }

      .cls-9 {
        fill: none;
        stroke: #111725;
        stroke-miterlimit: 10;
        stroke-width: 3px;
      }
    </style>
  </defs>
  <g id="Layer_1-2" data-name="Layer 1">
    <g>
      <text class="cls-3" transform="translate(302.6 228.58)"><tspan class="cls-7" x="0" y="0">INN</tspan><tspan class="cls-6" x="203.87" y="0">O</tspan><tspan class="cls-8" x="281.54" y="0">V</tspan><tspan class="cls-4" x="351.29" y="0">ATIO</tspan><tspan class="cls-5" x="628.84" y="0">N</tspan><tspan class="cls-7" x="703.7" y="0">S</tspan></text>
      <path class="cls-1" d="M309.39,149.94V.32h16.09v149.62h-16.09ZM319.39,149.94v-14.79h43.93c11.74,0,22.11-2.57,31.1-7.72,8.99-5.14,15.98-12.25,20.99-21.31,5-9.06,7.5-19.46,7.5-31.21s-2.54-21.93-7.61-30.99c-5.08-9.06-12.11-16.13-21.09-21.2-8.99-5.07-19.28-7.61-30.88-7.61h-43.49V.32h43.93c10.87,0,20.91,1.85,30.12,5.55,9.2,3.7,17.25,8.92,24.14,15.66,6.88,6.74,12.21,14.65,15.98,23.7,3.77,9.06,5.65,19.03,5.65,29.9s-1.89,20.44-5.65,29.58c-3.77,9.13-9.06,17.07-15.88,23.81-6.82,6.74-14.83,12-24.03,15.77-9.21,3.77-19.18,5.65-29.9,5.65h-44.8Z"/>
      <path class="cls-1" d="M471.83,82.85l-8.82-11.37,28.17.06c9.86,0,17.43-2.5,22.73-7.5,5.29-5,7.94-11.63,7.94-19.9s-2.61-14.75-7.83-19.9c-5.22-5.14-12.76-7.72-22.62-7.72-14.45-.1-28.89-.19-43.34-.29-.05-4.62-.1-9.23-.15-13.85h43.49c9.71,0,18.05,1.78,25.01,5.33,6.96,3.55,12.29,8.45,15.98,14.68,3.7,6.24,5.55,13.34,5.55,21.31,0,8.41-1.85,15.7-5.55,21.86-3.7,6.16-9.03,10.98-15.98,14.46-6.96,3.48-15.3,5.22-25.01,5.22l-19.57-2.39ZM527.94,152.01l-56.11-69.16,15.66-5,61.11,74.16h-20.66Z"/>
      <path class="cls-1" d="M578.44,17.61V3.04h86.77c-4.86,4.86-9.71,9.71-14.57,14.57h-72.2ZM579.52,83.07v-14.14h71.76v14.14h-71.76ZM578.44,152.66v-14.57l72.32-.02,15.76,14.59h-88.08Z"/>
      <path class="cls-1" d="M680.24,17.62c4.86-4.86,9.71-9.71,14.57-14.57h107c-4.86,4.86-9.71,9.71-14.57,14.57h-107ZM733.09,152.68V7.19h16.09v145.49h-16.09Z"/>
      <path class="cls-2" d="M826.18,17.62V3.05h86.77c-4.86,4.86-9.71,9.71-14.57,14.57h-72.2ZM826.18,83.09v-14.14h107.8s0,14.12,0,14.12h-107.8ZM826.18,152.68v-14.57l71.74-.02,16.33,14.6h-88.08Z"/>
      <path class="cls-2" d="M991.68,138.32l-66.55-63.71,63.78-57.18c10.32-9.25,23.7-14.37,37.56-14.37h0l-85.25,75.9v-9.13l87.42,82.86h-1.2c-13.33,0-26.14-5.14-35.76-14.36Z"/>
      <circle class="cls-2" cx="64.57" cy="62.26" r="17.23"/>
      <path class="cls-1" d="M16.34.06c39.31,0,61.02,0,100.33,0,16.88-.24,46.43,7.71,63.52,32.48,13.87,18.24,22.01,53.94,8.29,83.47-13.03,27.35-32.09,41.66-60.84,46.75-5.02.74-14.31,2.02-25.99-.58-40.37-9.62-53.76-37.11-53.14-71.28h34.97c.01,1.46.78,16.55,6.15,24.25,6.28,9.01,16.48,11.75,19.65,12.6,12.35,3.31,26.29.4,36.47-8.07,14.11-11.73,14.63-28.82,14.79-34.15.77-25.05-17.67-41.79-23.76-45.15-3.98-2.19-7.2-3.15-7.92-3.36-3.6-1.04-6.48-1.27-9.67-1.52-2.38-.19-5.36-.3-8.81-.14-27.29-.03-36.96-.06-64.24-.09C36.21,23.54,26.27,11.8,16.34.06Z"/>
      <g>
        <path class="cls-1" d="M120.22,228c8.42,0,15.26-5.2,15.26-11.62h-30.52c0,6.42,6.84,11.62,15.26,11.62Z"/>
        <path class="cls-1" d="M146.38,175.43h-52.31c-4.55,0-8.24,2.8-8.24,6.27s3.68,6.27,8.24,6.27h52.31c4.54,0,8.24-2.8,8.24-6.27s-3.69-6.27-8.24-6.27Z"/>
        <path class="cls-1" d="M146.38,195.68h-52.31c-4.55,0-8.24,2.8-8.24,6.27s3.68,6.27,8.24,6.27h52.31c4.54,0,8.24-2.8,8.24-6.27s-3.69-6.27-8.24-6.27Z"/>
      </g>
      <line class="cls-9" x1="195.09" y1="38.82" x2="212.9" y2="19"/>
      <circle class="cls-1" cx="220.05" cy="11.08" r="11.08"/>
      <line class="cls-9" x1="200.67" y1="88.34" x2="225.08" y2="99.05"/>
      <circle class="cls-1" cx="234.83" cy="103.36" r="11.08"/>
      <line class="cls-9" x1="43.59" y1="111.27" x2="20.39" y2="124.37"/>
      <circle class="cls-1" cx="11.09" cy="129.59" r="11.08"/>
    </g>
  </g>
</svg>