<?xml version="1.0" encoding="UTF-8"?>
<svg id="Layer_2" data-name="Layer 2" xmlns="http://www.w3.org/2000/svg" viewBox="0 0 256.27 237.6">
  <defs>
    <style>
      .cls-1 {
        fill: #eaecf1;
      }

      .cls-1, .cls-2 {
        stroke-width: 0px;
      }

      .cls-3 {
        fill: none;
        stroke: #eaecf1;
        stroke-miterlimit: 10;
        stroke-width: 2px;
      }

      .cls-2 {
        fill: #fff;
      }
    </style>
  </defs>
  <g id="Layer_1-2" data-name="Layer 1">
    <g>
      <circle class="cls-1" cx="67.29" cy="64.88" r="17.95"/>
      <path class="cls-1" d="M17.03.07c40.97,0,63.59,0,104.56,0,17.59-.25,48.38,8.03,66.19,33.85,14.45,19,22.94,56.21,8.64,86.98-13.58,28.5-33.44,43.41-63.4,48.71-5.23.77-14.91,2.1-27.08-.6-42.07-10.02-56.02-38.68-55.38-74.29h36.44c.02,1.52.82,17.25,6.41,25.27,6.55,9.39,17.17,12.24,20.48,13.13,12.87,3.45,27.39.42,38-8.41,14.7-12.23,15.25-30.04,15.42-35.59.8-26.1-18.41-43.55-24.77-47.05-4.15-2.28-7.51-3.28-8.26-3.5-3.75-1.09-6.75-1.32-10.08-1.58-2.48-.19-5.59-.31-9.18-.15-28.43-.03-38.52-.06-66.95-.09C37.73,24.53,27.38,12.3,17.03.07Z"/>
      <g>
        <path class="cls-1" d="M125.28,237.6c8.78,0,15.9-5.42,15.9-12.11h-31.81c0,6.69,7.12,12.11,15.9,12.11Z"/>
        <path class="cls-1" d="M152.54,182.82h-54.51c-4.74,0-8.58,2.92-8.58,6.53s3.84,6.54,8.58,6.54h54.51c4.74,0,8.58-2.92,8.58-6.54s-3.85-6.53-8.58-6.53Z"/>
        <path class="cls-1" d="M152.54,203.91h-54.51c-4.74,0-8.58,2.92-8.58,6.54s3.84,6.53,8.58,6.53h54.51c4.74,0,8.58-2.92,8.58-6.53s-3.85-6.54-8.58-6.54Z"/>
      </g>
      <line class="cls-3" x1="203.3" y1="40.46" x2="221.86" y2="19.8"/>
      <circle class="cls-2" cx="229.31" cy="11.55" r="11.55"/>
      <line class="cls-3" x1="209.12" y1="92.05" x2="234.55" y2="103.22"/>
      <circle class="cls-1" cx="244.72" cy="107.71" r="11.55"/>
      <line class="cls-3" x1="45.43" y1="115.95" x2="21.24" y2="129.6"/>
      <circle class="cls-2" cx="11.55" cy="135.05" r="11.55"/>
    </g>
  </g>
</svg>